<?xml version="1.0" encoding="UTF-8"?>
<!DOCTYPE svg PUBLIC "-//W3C//DTD SVG 1.1//EN" "http://www.w3.org/Graphics/SVG/1.1/DTD/svg11.dtd">
<svg version="1.2" width="27.81mm" height="33.15mm" viewBox="7931 1592 2781 3315" preserveAspectRatio="xMidYMid" fill-rule="evenodd" stroke-width="28.222" stroke-linejoin="round" xmlns="http://www.w3.org/2000/svg" xmlns:ooo="http://xml.openoffice.org/svg/export" xmlns:xlink="http://www.w3.org/1999/xlink" xmlns:presentation="http://sun.com/xmlns/staroffice/presentation" xmlns:smil="http://www.w3.org/2001/SMIL20/" xmlns:anim="urn:oasis:names:tc:opendocument:xmlns:animation:1.0" xml:space="preserve">
 <defs class="EmbeddedBulletChars">
  <g id="bullet-char-template-57356" transform="scale(0.00048828125,-0.00048828125)">
   <path d="M 580,1141 L 1163,571 580,0 -4,571 580,1141 Z"/>
  </g>
  <g id="bullet-char-template-57354" transform="scale(0.00048828125,-0.00048828125)">
   <path d="M 8,1128 L 1137,1128 1137,0 8,0 8,1128 Z"/>
  </g>
  <g id="bullet-char-template-10146" transform="scale(0.00048828125,-0.00048828125)">
   <path d="M 174,0 L 602,739 174,1481 1456,739 174,0 Z M 1358,739 L 309,1346 659,739 1358,739 Z"/>
  </g>
  <g id="bullet-char-template-10132" transform="scale(0.00048828125,-0.00048828125)">
   <path d="M 2015,739 L 1276,0 717,0 1260,543 174,543 174,936 1260,936 717,1481 1274,1481 2015,739 Z"/>
  </g>
  <g id="bullet-char-template-10007" transform="scale(0.00048828125,-0.00048828125)">
   <path d="M 0,-2 C -7,14 -16,27 -25,37 L 356,567 C 262,823 215,952 215,954 215,979 228,992 255,992 264,992 276,990 289,987 310,991 331,999 354,1012 L 381,999 492,748 772,1049 836,1024 860,1049 C 881,1039 901,1025 922,1006 886,937 835,863 770,784 769,783 710,716 594,584 L 774,223 C 774,196 753,168 711,139 L 727,119 C 717,90 699,76 672,76 641,76 570,178 457,381 L 164,-76 C 142,-110 111,-127 72,-127 30,-127 9,-110 8,-76 1,-67 -2,-52 -2,-32 -2,-23 -1,-13 0,-2 Z"/>
  </g>
  <g id="bullet-char-template-10004" transform="scale(0.00048828125,-0.00048828125)">
   <path d="M 285,-33 C 182,-33 111,30 74,156 52,228 41,333 41,471 41,549 55,616 82,672 116,743 169,778 240,778 293,778 328,747 346,684 L 369,508 C 377,444 397,411 428,410 L 1163,1116 C 1174,1127 1196,1133 1229,1133 1271,1133 1292,1118 1292,1087 L 1292,965 C 1292,929 1282,901 1262,881 L 442,47 C 390,-6 338,-33 285,-33 Z"/>
  </g>
  <g id="bullet-char-template-9679" transform="scale(0.00048828125,-0.00048828125)">
   <path d="M 813,0 C 632,0 489,54 383,161 276,268 223,411 223,592 223,773 276,916 383,1023 489,1130 632,1184 813,1184 992,1184 1136,1130 1245,1023 1353,916 1407,772 1407,592 1407,412 1353,268 1245,161 1136,54 992,0 813,0 Z"/>
  </g>
  <g id="bullet-char-template-8226" transform="scale(0.00048828125,-0.00048828125)">
   <path d="M 346,457 C 273,457 209,483 155,535 101,586 74,649 74,723 74,796 101,859 155,911 209,963 273,989 346,989 419,989 480,963 531,910 582,859 608,796 608,723 608,648 583,586 532,535 482,483 420,457 346,457 Z"/>
  </g>
  <g id="bullet-char-template-8211" transform="scale(0.00048828125,-0.00048828125)">
   <path d="M -4,459 L 1135,459 1135,606 -4,606 -4,459 Z"/>
  </g>
  <g id="bullet-char-template-61548" transform="scale(0.00048828125,-0.00048828125)">
   <path d="M 173,740 C 173,903 231,1043 346,1159 462,1274 601,1332 765,1332 928,1332 1067,1274 1183,1159 1299,1043 1357,903 1357,740 1357,577 1299,437 1183,322 1067,206 928,148 765,148 601,148 462,206 346,322 231,437 173,577 173,740 Z"/>
  </g>
 </defs>
 <g class="Page">
  <g class="com.sun.star.drawing.ClosedBezierShape">
   <g id="id3">
    <rect class="BoundingBox" stroke="none" fill="none" x="7931" y="1592" width="2781" height="3315"/>
    <path fill="rgb(43, 88, 36)" stroke="none" d="M 9320,3278 C 9093,3310 8919,3533 8792,3748 L 8574,3748 C 8469,3561 8344,3399 8125,3303 8030,4074 8561,4665 9320,4710 10079,4665 10611,4074 10516,3303 10297,3399 10171,3561 10066,3748 L 9849,3748 C 9722,3533 9554,3309 9320,3278 Z M 9320,3278 L 9320,3278 Z M 9259,1969 L 9320,1907 9382,1969 9320,2030 9259,1969 Z M 9259,1969 L 9259,1969 Z M 9199,2701 L 9320,2579 9442,2701 9320,2822 9199,2701 Z M 9199,2701 L 9199,2701 Z M 9081,3714 L 9320,3475 9559,3714 9320,3953 9081,3714 Z M 9081,3714 L 9081,3714 Z M 9320,4906 L 9320,4906 9320,4906 9320,4906 9320,4906 C 8290,4850 7776,4027 7972,3053 8266,3096 8524,3305 8686,3546 8823,3322 9059,3120 9320,3065 9581,3120 9818,3323 9955,3546 10117,3305 10374,3096 10669,3053 10866,4027 10350,4850 9320,4906 Z M 9320,4906 L 9320,4906 Z M 9587,2180 C 9627,2130 9694,2075 9749,2049 9848,2118 9946,2258 9999,2365 10005,2363 10012,2362 10019,2360 10075,2344 10135,2331 10195,2323 10107,2120 9958,1925 9753,1832 9728,1843 9703,1853 9679,1865 9585,1752 9458,1646 9320,1592 9177,1653 9061,1745 8962,1865 8938,1853 8912,1843 8888,1832 8682,1925 8533,2120 8446,2323 8506,2331 8566,2344 8622,2360 8629,2362 8636,2363 8642,2365 8694,2258 8793,2118 8892,2049 8947,2075 9014,2130 9054,2180 9100,2148 9188,2104 9247,2089 9210,2049 9169,2005 9127,1972 9183,1908 9248,1852 9320,1809 9393,1852 9458,1908 9513,1972 9471,2005 9431,2049 9394,2089 9453,2104 9541,2148 9587,2180 Z M 9587,2180 L 9587,2180 Z M 9604,2986 C 9772,2833 10042,2723 10240,2689 10284,2777 10318,2877 10338,2973 10396,2947 10460,2924 10524,2907 10487,2747 10430,2619 10346,2480 10148,2500 9989,2539 9807,2625 9702,2460 9518,2287 9320,2248 9120,2291 8941,2456 8833,2625 8651,2539 8493,2500 8295,2480 8211,2619 8153,2747 8117,2907 8181,2924 8244,2947 8303,2973 8322,2877 8357,2777 8401,2689 8599,2723 8869,2833 9037,2986 9104,2956 9165,2925 9238,2915 9175,2840 9101,2780 9005,2719 9080,2605 9190,2499 9320,2451 9451,2499 9560,2605 9636,2719 9540,2780 9466,2840 9403,2915 9475,2925 9536,2956 9604,2986 Z"/>
   </g>
  </g>
 </g>
</svg>